# xmcd
#
# Track frame offsets:
#	150
#	11035
#	20499
#	29816
#	39714
#	48125
#	56465
#
# Disc length: 865 seconds
#
# Revision: 0
# Processed by: cddbd v1.5.2PL0 Copyright (c) Steve Scherf et al.
# Submitted via: dBpowerAMP V4.0
#
DISCID=56035f07
DTITLE=R.T. and the 44s - 7 Blues
DYEAR=2011
DGENRE=Blues
TTITLE0=Lonesome Valley
TTITLE1=Careless Love
TTITLE2=On the Road Again
TTITLE3=In the Pines
TTITLE4=Motherless Child
TTITLE5=Swing Low, Sweet Chariot
TTITLE6=Goin' Up the Country
EXTD=Local folk singer in the Los Angeles area
EXTT0=
EXTT1=
EXTT2=
EXTT3=
EXTT4=
EXTT5=
EXTT6=
PLAYORDER=
